<?xml version="1.0" standalone="no"?>
<!DOCTYPE svg PUBLIC "-//W3C//DTD SVG 20010904//EN"
 "http://www.w3.org/TR/2001/REC-SVG-20010904/DTD/svg10.dtd">
<svg version="1.0" xmlns="http://www.w3.org/2000/svg"
 width="700.000000pt" height="700.000000pt" viewBox="0 0 700.000000 700.000000"
 preserveAspectRatio="xMidYMid meet">
<metadata>
Created by potrace 1.14, written by Peter Selinger 2001-2017
</metadata>
<g transform="translate(0.000000,700.000000) scale(0.100000,-0.100000)"
fill="#000000" stroke="none">
<path d="M958 6977 c-14 -12 -37 -42 -50 -67 l-23 -45 -1 -3311 c-1 -2682 1
-3318 12 -3349 18 -55 64 -106 119 -135 l48 -24 2376 -1 c1307 0 2391 3 2409
6 61 13 123 60 155 118 l31 54 1 2581 c0 1420 -1 2587 -3 2594 -3 9 -212 12
-1001 12 l-997 0 0 793 1 792 -1525 2 -1525 2 -27 -22z"/>
<path d="M4307 6352 c1 -356 2 -652 3 -659 0 -9 210 -11 861 -12 474 0 858 4
853 8 -5 4 -31 25 -59 47 -27 21 -61 49 -75 62 -14 12 -28 22 -31 22 -3 0 -19
11 -35 26 -26 22 -129 103 -203 159 -14 11 -31 24 -37 30 -6 5 -26 21 -44 35
-18 14 -78 61 -134 105 -56 44 -220 173 -366 288 -146 114 -272 213 -280 220
-8 7 -52 41 -98 77 -46 36 -133 104 -194 153 -75 59 -119 87 -137 87 l-26 0 2
-648z"/>
</g>
</svg>
